HIERARCHY
ROOT SpineBase
{
  OFFSET 0.000000 0.000000 0.000000
  CHANNELS 6 Xposition Yposition Zposition Zrotation Xrotation Yrotation
  JOINT SpineMid
  {
    OFFSET 0.000000 36.384742 0.000000
    CHANNELS 3 Zrotation Xrotation Yrotation
    JOINT SpineShoulder
    {
      OFFSET 0.028193 26.825604 -1.104641
      CHANNELS 3 Zrotation Xrotation Yrotation
      JOINT Neck
      {
        OFFSET -0.026884 8.857216 -0.731452
        CHANNELS 3 Zrotation Xrotation Yrotation
        JOINT Head
        {
          OFFSET 5.838776 9.937870 3.986261
          CHANNELS 3 Zrotation Xrotation Yrotation
          End Site
          {
            OFFSET 0 0 0
          }
        }
      }
      JOINT ShoulderLeft
      {
        OFFSET -15.157383 -4.500392 2.272539
        CHANNELS 3 Zrotation Xrotation Yrotation
        JOINT ElbowLeft
        {
          OFFSET 17.542329 -13.470347 -20.691524
          CHANNELS 3 Zrotation Xrotation Yrotation
          JOINT WristLeft
          {
            OFFSET 6.717085 -19.196327 -5.239804
            CHANNELS 3 Zrotation Xrotation Yrotation
            JOINT HandLeft
            {
              OFFSET -4.637568 1.158248 6.314547
              CHANNELS 3 Zrotation Xrotation Yrotation
              JOINT HandTipLeft
              {
                OFFSET -0.242327 -4.739902 2.374950
                CHANNELS 3 Zrotation Xrotation Yrotation
                End Site
                {
                  OFFSET 0 0 0
                }
              }
              JOINT ThumbLeft
              {
                OFFSET -3.916095 3.205220 0.534864
                CHANNELS 3 Zrotation Xrotation Yrotation
                End Site
                {
                  OFFSET 0 0 0
                }
              }
            }
          }
        }
      }
      JOINT ShoulderRight
      {
        OFFSET 6.636944 -5.374229 -15.976907
        CHANNELS 3 Zrotation Xrotation Yrotation
        JOINT ElbowRight
        {
          OFFSET 0.766358 -25.299412 -5.677694
          CHANNELS 3 Zrotation Xrotation Yrotation
          JOINT WristRight
          {
            OFFSET -0.460977 -24.241726 13.249425
            CHANNELS 3 Zrotation Xrotation Yrotation
            JOINT HandRight
            {
              OFFSET 2.188346 -7.445100 1.249049
              CHANNELS 3 Zrotation Xrotation Yrotation
              JOINT HandTipRight
              {
                OFFSET -0.202837 -6.083672 0.191990
                CHANNELS 3 Zrotation Xrotation Yrotation
                End Site
                {
                  OFFSET 0 0 0
                }
              }
              JOINT ThumbRight
              {
                OFFSET 3.374116 2.142836 -2.148608
                CHANNELS 3 Zrotation Xrotation Yrotation
                End Site
                {
                  OFFSET 0 0 0
                }
              }
            }
          }
        }
      }
    }
  }
  JOINT HipLeft
  {
    OFFSET -5.762167 0.910903 0.499296
    CHANNELS 3 Zrotation Xrotation Yrotation
    JOINT KneeLeft
    {
      OFFSET -16.206998 -30.482062 8.941961
      CHANNELS 3 Zrotation Xrotation Yrotation
      JOINT AnkleLeft
      {
        OFFSET 1.759829 -26.663265 -8.858783
        CHANNELS 3 Zrotation Xrotation Yrotation
        JOINT FootLeft
        {
          OFFSET 10.136147 -0.346971 -13.822657
          CHANNELS 3 Zrotation Xrotation Yrotation
          End Site
          {
            OFFSET 0 0 0
          }
        }
      }
    }
  }
  JOINT HipRight
  {
    OFFSET 4.376154 1.703454 -8.013957
    CHANNELS 3 Zrotation Xrotation Yrotation
    JOINT KneeRight
    {
      OFFSET -8.272068 -26.333241 -1.085903
      CHANNELS 3 Zrotation Xrotation Yrotation
      JOINT AnkleRight
      {
        OFFSET -6.565401 -31.574526 -0.298205
        CHANNELS 3 Zrotation Xrotation Yrotation
        JOINT FootRight
        {
          OFFSET -11.601033 -0.671425 7.789446
          CHANNELS 3 Zrotation Xrotation Yrotation
          End Site
          {
            OFFSET 0 0 0
          }
        }
      }
    }
  }
}
MOTION
Frames: 11
Frame Time: 0.033333
56.080016 66.089813 294.889989 -0.000000 0.000000 40.020527 0.000000 0.000000 -40.020527 -0.000000 0.000000 0.000000 -0.000000 0.000000 0.000000 0.000000 0.000000 0.000000 -0.000000 0.000000 0.000000 -0.000000 0.000000 0.000000 -0.000000 0.000000 0.000000 -0.000000 0.000000 0.000000 0.000000 0.000000 0.000000 0.000000 0.000000 0.000000 -0.000000 0.000000 0.000000 -0.000000 0.000000 0.000000 -0.000000 0.000000 0.000000 -0.000000 0.000000 0.000000 0.000000 0.000000 0.000000 0.000000 0.000000 0.000000 0.000000 0.000000 -40.020527 -0.000000 0.000000 0.000000 -0.000000 0.000000 0.000000 0.000000 0.000000 0.000000 0.000000 0.000000 -40.020527 -0.000000 0.000000 0.000000 -0.000000 0.000000 0.000000 0.000000 0.000000 0.000000
56.170657 66.786798 294.654892 -0.068622 0.112112 28.616824 0.006543 -0.131283 -28.616750 -0.000000 0.000000 0.000000 -0.000000 0.000000 0.000000 0.000000 0.000000 0.000000 -1.103148 -1.242070 0.066971 1.058168 -3.944696 -1.919812 8.944742 20.845918 5.893749 -5.506583 -6.832841 -4.663195 0.000000 0.000000 0.000000 0.000000 0.000000 0.000000 -0.343242 3.098848 0.179136 -0.200639 -3.665921 -0.471563 1.385420 -0.901739 -0.011158 2.444440 -9.129519 0.978999 0.000000 0.000000 0.000000 0.000000 0.000000 0.000000 7.830542 1.248347 -29.547150 -16.234421 -16.811802 1.266788 7.207169 7.326665 -2.621672 0.000000 0.000000 0.000000 8.610225 -3.829504 -28.989840 -16.299701 0.766903 0.277254 6.983661 -1.754183 0.411064 0.000000 0.000000 0.000000
56.225384 67.409830 294.427278 -0.149674 0.225308 15.033269 0.086112 -0.256419 -15.032782 -0.000000 0.000000 0.000000 -0.000000 0.000000 0.000000 0.000000 0.000000 0.000000 -2.111859 -2.356761 0.139010 1.986530 -7.063953 -3.582386 17.805471 41.117906 7.517027 -12.828902 -15.299304 -10.743385 0.000000 0.000000 0.000000 0.000000 0.000000 0.000000 -0.718935 6.026836 0.377533 -0.298823 -7.074262 -0.922773 2.564244 -1.554326 0.002485 4.330347 -15.422162 1.996806 0.000000 0.000000 0.000000 0.000000 0.000000 0.000000 14.324887 5.698617 -17.332182 -33.428136 -32.471440 -2.160791 15.081653 14.659853 -6.367307 0.000000 0.000000 0.000000 16.833713 -2.936392 -15.862146 -29.490318 0.804225 0.350306 13.164127 -2.533755 0.327471 0.000000 0.000000 0.000000
56.244197 67.958907 294.207147 -0.243160 0.338926 0.763597 0.238626 -0.342134 -0.762166 -0.000000 0.000000 0.000000 -0.153679 -0.733821 0.492680 0.000000 0.000000 0.000000 -3.023842 -3.341589 0.222364 2.845986 -9.392250 -4.987330 27.761437 56.975325 4.128808 -19.788554 -22.005080 -16.540203 0.000000 0.000000 0.000000 0.000000 0.000000 0.000000 -1.116726 8.646561 0.587664 -0.303636 -10.092677 -1.328374 3.508747 -1.888506 0.054704 5.802992 -19.801241 2.882524 0.000000 0.000000 0.000000 0.000000 0.000000 0.000000 18.108395 12.517499 -4.923540 -51.425647 -43.987419 -9.936710 22.150607 20.384988 -10.374484 0.000000 0.000000 0.000000 22.933260 1.894629 -2.955427 -39.649014 0.277564 0.182618 18.160137 -2.744957 0.498452 0.000000 0.000000 0.000000
56.227097 68.434030 293.994500 -0.348925 0.452264 -12.140421 0.436245 -0.368757 12.143202 -0.000000 0.000000 0.000000 -0.392757 -0.826320 0.640761 0.000000 0.000000 0.000000 -3.837403 -4.195098 0.322710 3.683684 -10.998130 -6.142268 40.423267 67.489545 -4.754104 -25.227494 -26.449034 -20.931066 0.000000 0.000000 0.000000 0.000000 0.000000 0.000000 -1.522041 10.826539 0.798103 -0.221822 -12.593928 -1.664303 4.190118 -1.834826 0.158514 7.002753 -22.997465 3.580359 0.000000 0.000000 0.000000 0.000000 0.000000 0.000000 18.985055 19.707997 6.278176 -68.572873 -50.663036 -19.810787 27.680674 24.280587 -13.837265 0.000000 0.000000 0.000000 26.157729 8.432504 7.873317 -47.100854 -0.724687 -0.192047 22.245996 -2.336900 0.563364 0.000000 0.000000 0.000000
56.174083 68.835198 293.789336 -0.466654 0.564593 -22.369826 0.646422 -0.344482 22.374068 -0.000000 0.000000 0.000000 -0.726124 -0.842142 0.780103 0.000000 0.000000 0.000000 -4.551374 -4.916571 0.445091 4.534116 -11.955570 -7.058802 56.117865 73.402800 -18.479475 -29.133713 -29.367715 -23.785705 0.000000 0.000000 0.000000 0.000000 0.000000 0.000000 -1.917219 12.455729 0.994462 -0.058585 -14.470102 -1.910215 4.578411 -1.325783 0.327458 8.050815 -25.497136 4.083473 0.000000 0.000000 0.000000 0.000000 0.000000 0.000000 17.903266 25.577205 15.575407 -82.197995 -53.671831 -28.540651 31.695014 26.836744 -16.470858 0.000000 0.000000 0.000000 27.009533 14.637165 16.066221 -52.199556 -2.183958 -0.722312 25.555097 -1.362747 0.472848 0.000000 0.000000 0.000000
56.099779 69.386406 293.624913 -0.577040 0.646323 -32.445463 0.353610 0.511387 32.450481 0.004226 -0.888145 0.001140 -1.344921 -0.845429 1.022245 0.000000 0.000000 0.000000 -5.353318 -5.800225 0.461705 6.310008 -12.407166 -7.946376 76.980389 76.508582 -39.152480 -37.855004 -33.248522 -30.066525 0.000000 0.000000 0.000000 0.000000 0.000000 0.000000 -2.084691 11.540268 1.007029 0.351542 -13.416666 -1.723176 5.433224 -1.595598 0.368711 6.520948 -25.751040 3.897529 0.000000 0.000000 0.000000 0.000000 0.000000 0.000000 14.707128 30.427993 25.763792 -91.588843 -54.818111 -34.752636 35.561629 29.346631 -18.879287 0.000000 0.000000 0.000000 24.204747 20.967176 24.461228 -53.921319 -5.413775 -1.589361 27.773670 0.579212 0.332773 0.000000 0.000000 0.000000
55.990425 69.745641 293.482391 -0.680193 0.703057 -38.221836 0.294584 0.581501 38.225081 0.088985 -0.977594 0.005449 -1.807260 -0.699627 1.117352 0.000000 0.000000 0.000000 -5.970976 -6.437253 0.534592 9.030172 -11.065332 -8.333096 74.919538 77.139259 -38.515065 -32.140369 -34.710996 -23.429203 0.000000 0.000000 0.000000 0.000000 0.000000 0.000000 -2.379833 12.090017 1.127678 0.614728 -14.096336 -1.779441 5.796858 -0.626134 0.628426 6.525344 -26.979203 3.869070 0.000000 0.000000 0.000000 0.000000 0.000000 0.000000 11.919931 31.560800 32.581826 -92.018529 -54.562964 -34.718972 37.336311 30.553181 -19.814157 0.000000 0.000000 0.000000 19.434542 24.019120 29.991787 -51.015111 -9.311129 -2.155354 28.340237 3.255181 -0.871966 0.000000 0.000000 0.000000
55.769711 69.794428 293.301436 -0.878353 0.808159 -39.896413 0.313919 0.636710 39.897058 0.229221 -1.095209 0.012776 -2.803662 -0.458854 1.365680 0.000000 0.000000 0.000000 -5.934373 -6.171528 0.892910 9.996197 -10.233752 -8.454140 67.855613 76.693078 -32.224866 -32.535616 -34.107403 -24.213584 0.000000 0.000000 0.000000 0.000000 0.000000 0.000000 -2.635708 12.471985 1.229616 0.842455 -14.668835 -1.822564 4.766549 1.205317 0.892076 8.433351 -29.212650 4.130175 0.000000 0.000000 0.000000 0.000000 0.000000 0.000000 10.927814 28.655817 35.833544 -81.863918 -52.152404 -27.106576 35.701329 29.683307 -18.922311 0.000000 0.000000 0.000000 18.926994 26.425242 30.816104 -51.657615 -12.269601 -2.729304 29.621371 5.428618 -2.092247 0.000000 0.000000 0.000000
55.524393 69.524963 293.056265 -1.041709 0.981294 -35.603176 0.321310 0.521323 35.596701 0.120645 -0.482004 -0.006500 -2.051571 -0.987575 1.094270 0.000000 0.000000 0.000000 -4.501757 -5.475577 1.198522 8.625711 -9.012460 -7.466720 51.866172 72.165940 -17.300795 -26.724151 -33.705526 -17.407329 0.000000 0.000000 0.000000 0.000000 0.000000 0.000000 -2.421402 12.178212 1.292871 0.961602 -15.297153 -1.853378 2.086267 5.374766 1.687497 10.692300 -30.758189 3.694769 0.000000 0.000000 0.000000 0.000000 0.000000 0.000000 13.825819 28.384558 30.897650 -84.142503 -52.214094 -28.277397 35.174961 28.949033 -18.920563 0.000000 0.000000 0.000000 21.251475 24.744151 26.434543 -51.592628 -12.661730 -2.614178 29.750849 6.104801 -2.705791 0.000000 0.000000 0.000000
55.236551 69.472152 292.792541 -1.295841 1.199734 -36.488795 0.335641 0.439498 36.475460 0.139951 -0.477501 -0.017000 -3.628379 -0.196992 1.289833 0.000000 0.000000 0.000000 -5.083404 -5.924366 2.203733 7.964839 -8.468384 -8.150722 53.514216 70.478257 -18.628720 -23.875402 -34.448396 -12.834868 0.000000 0.000000 0.000000 0.000000 0.000000 0.000000 -2.396173 12.342686 1.402509 1.196201 -15.846768 -1.871947 0.501452 8.458621 2.405135 15.914101 -32.506180 4.966488 0.000000 0.000000 0.000000 0.000000 0.000000 0.000000 14.218926 28.548442 32.086544 -84.310671 -51.867530 -28.067517 34.627709 28.760473 -18.331250 0.000000 0.000000 0.000000 21.211018 25.663584 27.032425 -51.846607 -13.827136 -2.821980 31.975509 7.931313 -4.355698 0.000000 0.000000 0.000000
